<?xml version="1.0" encoding="utf-8"?>
<!-- Generator: Adobe Illustrator 23.0.1, SVG Export Plug-In . SVG Version: 6.00 Build 0)  -->
<svg version="1.1" id="Layer_1" xmlns="http://www.w3.org/2000/svg" xmlns:xlink="http://www.w3.org/1999/xlink" x="0px" y="0px"
	 viewBox="0 0 792 360" style="enable-background:new 0 0 792 360;" xml:space="preserve">
<style type="text/css">
	.st0{fill:#FFFFFF;}
	.st1{clip-path:url(#SVGID_2_);fill:#FFFFFF;}
</style>
<g>
	<path class="st0" d="M78.67,56.25h15.42v65.1c0,6.85,2.33,8.57,6.36,8.57c1.22,0,2.32-0.12,2.32-0.12v13.58
		c0,0-2.32,0.37-4.89,0.37c-8.57,0-19.21-2.2-19.21-20.07V56.25z"/>
	<path class="st0" d="M114.28,56.25h15.42v13.83h-15.42V56.25z M114.28,80.73h15.54v62.41h-15.54V80.73z"/>
	<path class="st0" d="M149.65,94.07h-8.08V81.71h8.44V63.72h15.17v17.99h14.2v12.36h-14.2v24.23c0,10.28,8.08,11.75,12.36,11.75
		c1.71,0,2.81-0.24,2.81-0.24v13.58c0,0-1.84,0.37-4.77,0.37c-8.69,0-25.94-2.57-25.94-23.5V94.07z"/>
	<path class="st0" d="M195.79,94.07h-8.08V81.71h8.44V63.72h15.17v17.99h14.2v12.36h-14.2v24.23c0,10.28,8.08,11.75,12.36,11.75
		c1.71,0,2.81-0.24,2.81-0.24v13.58c0,0-1.84,0.37-4.77,0.37c-8.69,0-25.94-2.57-25.94-23.5V94.07z"/>
	<path class="st0" d="M238.37,56.25h15.42v65.1c0,6.85,2.33,8.57,6.36,8.57c1.22,0,2.32-0.12,2.32-0.12v13.58
		c0,0-2.32,0.37-4.89,0.37c-8.57,0-19.21-2.2-19.21-20.07V56.25z"/>
	<path class="st0" d="M301.28,79.26c17.99,0,27.66,13.09,27.66,29.61c0,1.84-0.37,6-0.37,6h-43.08
		c0.98,10.89,9.42,16.52,18.72,16.52c10.03,0,17.99-6.85,17.99-6.85l6,11.14c0,0-9.55,8.93-25.09,8.93
		c-20.68,0-33.53-14.93-33.53-32.67C269.58,92.72,282.68,79.26,301.28,79.26z M313.27,104.22c-0.24-8.44-5.51-12.97-12.36-12.97
		c-7.95,0-13.46,4.9-14.93,12.97H313.27z"/>
	<path class="st0" d="M373.36,124.54c0,0,6.85,6.85,17.01,6.85c4.41,0,8.2-1.96,8.2-5.63c0-9.3-30.35-8.08-30.35-28.15
		c0-11.63,10.4-18.36,23.86-18.36c14.07,0,20.93,7.1,20.93,7.1l-5.75,11.5c0,0-5.75-5.38-15.3-5.38c-4.04,0-7.95,1.71-7.95,5.63
		c0,8.81,30.35,7.71,30.35,27.78c0,10.4-9.06,18.72-23.86,18.72c-15.54,0-24.23-9.18-24.23-9.18L373.36,124.54z"/>
	<path class="st0" d="M426.84,80.73h14.2v4.53c0,2.33-0.25,4.28-0.25,4.28h0.25c0,0,5.38-10.28,20.07-10.28
		c16.89,0,27.66,13.34,27.66,32.67c0,19.82-12.12,32.67-28.51,32.67c-12.36,0-17.87-8.57-17.87-8.57h-0.25c0,0,0.25,2.2,0.25,5.38
		v26.19h-15.54V80.73z M457.43,131.51c8.57,0,15.66-6.98,15.66-19.34c0-11.87-6.36-19.58-15.54-19.58c-8.08,0-15.66,5.87-15.66,19.7
		C441.89,121.97,447.15,131.51,457.43,131.51z"/>
	<path class="st0" d="M531.23,79.26c19.09,0,34.39,13.58,34.39,32.67c0,19.21-15.3,32.67-34.26,32.67
		c-19.09,0-34.39-13.46-34.39-32.67C496.96,92.84,512.26,79.26,531.23,79.26z M531.35,131.39c10.03,0,18.48-7.83,18.48-19.46
		c0-11.5-8.44-19.46-18.48-19.46c-10.16,0-18.6,7.95-18.6,19.46C512.75,123.56,521.19,131.39,531.35,131.39z"/>
	<path class="st0" d="M607.71,79.26c19.09,0,34.39,13.58,34.39,32.67c0,19.21-15.3,32.67-34.26,32.67
		c-19.09,0-34.39-13.46-34.39-32.67C573.45,92.84,588.75,79.26,607.71,79.26z M607.84,131.39c10.03,0,18.48-7.83,18.48-19.46
		c0-11.5-8.44-19.46-18.48-19.46c-10.16,0-18.6,7.95-18.6,19.46C589.24,123.56,597.68,131.39,607.84,131.39z"/>
	<path class="st0" d="M654.59,80.73h14.93v7.22c0,2.33-0.25,4.28-0.25,4.28h0.25c2.69-5.26,9.54-12.97,22.15-12.97
		c13.83,0,21.66,7.22,21.66,23.74v40.14h-15.42v-36.96c0-7.59-1.96-12.73-9.91-12.73c-8.32,0-14.44,5.26-16.77,12.73
		c-0.86,2.57-1.1,5.38-1.1,8.32v28.64h-15.54V80.73z"/>
</g>
<g>
	<path class="st0" d="M226.92,246.5c11.18,0,16.72,6.54,16.72,6.54l-3.18,4.63c0,0-5.09-5.54-13.36-5.54
		c-10,0-17.81,7.45-17.81,18.35c0,10.72,7.91,18.36,17.99,18.36c9.27,0,14.63-6.45,14.63-6.45l2.82,4.82c0,0-6.18,7.18-17.81,7.18
		c-13.54,0-23.99-9.72-23.99-23.9C202.93,256.41,213.47,246.5,226.92,246.5z"/>
	<path class="st0" d="M265.89,247.59h6.09v8.09c0,2-0.18,3.63-0.18,3.63h0.18c2.18-6.91,7.27-12.18,14.45-12.18
		c1.27,0,2.45,0.27,2.45,0.27v6.09c0,0-1.09-0.18-2.27-0.18c-6.45,0-11.27,5.09-13.27,11.81c-0.91,2.91-1.27,6-1.27,8.91v19.26
		h-6.18V247.59z"/>
	<path class="st0" d="M327.04,246.5c12.63,0,19.08,9.72,19.08,21.08c0,1.09-0.18,3.18-0.18,3.18h-35.07
		c0.27,11.72,8.27,18.08,17.72,18.08c8.36,0,13.9-5.54,13.9-5.54l2.82,4.72c0,0-6.63,6.36-16.9,6.36c-13.63,0-23.9-9.81-23.9-23.9
		C304.51,255.5,314.68,246.5,327.04,246.5z M339.85,265.68c-0.36-9.54-6.18-13.99-12.99-13.99c-7.63,0-14.27,4.82-15.72,13.99
		H339.85z"/>
	<path class="st0" d="M392.1,265.04h2.54v-1.18c0-8.81-4.82-11.81-11.36-11.81c-7.54,0-12.9,4.36-12.9,4.36l-2.91-4.72
		c0,0,6-5.18,16.27-5.18c10.99,0,17.08,6.09,17.08,17.54v29.26h-5.91v-5c0-2.27,0.18-3.82,0.18-3.82h-0.18c0,0-3.82,9.91-15.27,9.91
		c-7.63,0-15.54-4.45-15.54-13.54C364.11,265.4,384.19,265.04,392.1,265.04z M380.65,289.12c8.72,0,13.99-9.09,13.99-16.99v-2h-2.63
		c-7.18,0-21.54,0.27-21.54,10.36C370.47,284.76,373.83,289.12,380.65,289.12z"/>
	<path class="st0" d="M426.53,253.32h-6v-5.18h6.09v-13.18h6.09v13.18h11.45v5.18h-11.45v22.72c0,10.72,6.81,12.08,10.27,12.08
		c1.27,0,2.09-0.18,2.09-0.18v5.54c0,0-1,0.18-2.63,0.18c-5.27,0-15.9-1.73-15.9-16.99V253.32z"/>
	<path class="st0" d="M465.05,229.42h6.45v7.72h-6.45V229.42z M465.23,247.59h6.18v45.71h-6.18V247.59z"/>
	<path class="st0" d="M490.04,247.59h6.54l12.72,33.53c0.82,2.27,1.54,5.45,1.54,5.45h0.18c0,0,0.73-3.09,1.64-5.45l12.63-33.53
		h6.45L514.3,293.3h-6.72L490.04,247.59z"/>
	<path class="st0" d="M569.72,246.5c12.63,0,19.08,9.72,19.08,21.08c0,1.09-0.18,3.18-0.18,3.18h-35.08
		c0.27,11.72,8.27,18.08,17.72,18.08c8.36,0,13.9-5.54,13.9-5.54l2.82,4.72c0,0-6.63,6.36-16.9,6.36c-13.63,0-23.9-9.81-23.9-23.9
		C547.19,255.5,557.36,246.5,569.72,246.5z M582.53,265.68c-0.36-9.54-6.18-13.99-12.99-13.99c-7.63,0-14.27,4.82-15.72,13.99
		H582.53z"/>
</g>
<g>
	<defs>
		<rect id="SVGID_1_" width="792" height="360"/>
	</defs>
	<clipPath id="SVGID_2_">
		<use xlink:href="#SVGID_1_"  style="overflow:visible;"/>
	</clipPath>
	<path class="st1" d="M71.09,161.29c2.17,0.25,4.36,0.43,6.51,0.78c61.03,9.89,122.05,19.82,183.09,29.64
		c3.42,0.55,7.54,1.1,10.54,0.1c22.18-7.4,45.67-9.47,69.02-9.49c38.72-0.04,77.52,0.82,116.12,2.97
		c57.32,3.19,114.61,7.12,172,1.54c26.06-2.53,51.81-7.27,77.63-11.33c9.01-1.42,9.2-1.72,12.95,6.85
		c-9.46,1.87-18.76,3.92-28.18,5.54c-60.93,10.47-122.52,12.64-184.36,9.34c-39.35-2.1-78.56-5.66-117.9-7.86
		c-26.76-1.5-53.67-1.29-79.92,4.32c-8.7,1.86-17.96,4.01-25.2,8.05c-39.99,22.33-81.99,21.46-125.37,9.14
		c-32.28-9.16-60.27-23.58-83.63-43.59c-1.64-1.4-2.87-3.1-4.29-4.66C70.43,162.18,70.76,161.74,71.09,161.29"/>
</g>
</svg>
