<?xml version="1.0" encoding="utf-8"?>
<!-- Generator: Adobe Illustrator 23.0.1, SVG Export Plug-In . SVG Version: 6.00 Build 0)  -->
<svg version="1.1" id="Layer_1" xmlns="http://www.w3.org/2000/svg" xmlns:xlink="http://www.w3.org/1999/xlink" x="0px" y="0px"
	 viewBox="0 0 792 360" style="enable-background:new 0 0 792 360;" xml:space="preserve">
<style type="text/css">
	.st0{fill:#FFFFFF;}
	.st1{font-family:'MuseoSans-700';}
	.st2{font-size:122.381px;}
	.st3{font-family:'MuseoSans-300';}
	.st4{font-size:90.8586px;}
	.st5{letter-spacing:9;}
	.st6{clip-path:url(#SVGID_2_);fill:#FFFFFF;}
</style>
<text transform="matrix(1 0 0 1 70.959 143.1392)" class="st0 st1 st2">little spoon</text>
<text transform="matrix(1 0 0 1 198.6577 293.2998)"><tspan x="0" y="0" class="st0 st3 st4 st5">c</tspan><tspan x="59.78" y="0" class="st0 st3 st4 st5">r</tspan><tspan x="101.58" y="0" class="st0 st3 st4 st5">e</tspan><tspan x="161.73" y="0" class="st0 st3 st4 st5">a</tspan><tspan x="218.69" y="0" class="st0 st3 st4 st5">tiv</tspan><tspan x="344.26" y="0" class="st0 st3 st4">e</tspan></text>
<g>
	<defs>
		<rect id="SVGID_1_" width="792" height="360"/>
	</defs>
	<clipPath id="SVGID_2_">
		<use xlink:href="#SVGID_1_"  style="overflow:visible;"/>
	</clipPath>
	<path class="st6" d="M71.09,161.29c2.17,0.25,4.36,0.43,6.51,0.78c61.03,9.89,122.05,19.82,183.09,29.64
		c3.42,0.55,7.54,1.1,10.54,0.1c22.18-7.4,45.67-9.47,69.02-9.49c38.72-0.04,77.52,0.82,116.12,2.97
		c57.32,3.19,114.61,7.12,172,1.54c26.06-2.53,51.81-7.27,77.63-11.33c9.01-1.42,9.2-1.72,12.95,6.85
		c-9.46,1.87-18.76,3.92-28.18,5.54c-60.93,10.47-122.52,12.64-184.36,9.34c-39.35-2.1-78.56-5.66-117.9-7.86
		c-26.76-1.5-53.67-1.29-79.92,4.32c-8.7,1.86-17.96,4.01-25.2,8.05c-39.99,22.33-81.99,21.46-125.37,9.14
		c-32.28-9.16-60.27-23.58-83.63-43.59c-1.64-1.4-2.87-3.1-4.29-4.66C70.43,162.18,70.76,161.74,71.09,161.29"/>
</g>
</svg>
